<?xml version="1.0" encoding="UTF-8" standalone="no"?>
<svg width="231.80966mm" height="213.02405mm" viewBox="0 0 231.80966 213.02405" version="1.1" id="svg8" xmlns="http://www.w3.org/2000/svg" xmlns:svg="http://www.w3.org/2000/svg" xmlns:rdf="http://www.w3.org/1999/02/22-rdf-syntax-ns#" xmlns:cc="http://creativecommons.org/ns#" xmlns:dc="http://purl.org/dc/elements/1.1/">
  <defs id="defs2">
    <rect x="392.01974" y="436.59152" width="39.960807" height="22.40086" id="rect1731" />
    <rect x="393.32602" y="443.5386" width="45.377878" height="37.703548" id="rect1725" />
    <rect x="317.85498" y="405.6153" width="100.38211" height="41.763657" id="rect954" />
    <rect x="317.85498" y="405.6153" width="100.38211" height="41.763657" id="rect962" />
    <rect x="317.85498" y="405.6153" width="100.38211" height="41.763657" id="rect968" />
    <rect x="317.85498" y="405.6153" width="100.38211" height="41.763657" id="rect974" />
    <rect x="317.85498" y="405.6153" width="100.38211" height="41.763657" id="rect980" />
    <rect x="317.85498" y="405.6153" width="100.38211" height="41.763657" id="rect986" />
    <rect x="317.85498" y="405.6153" width="100.38211" height="41.763657" id="rect992" />
    <rect x="317.85498" y="405.6153" width="48.089622" height="20.782784" id="rect998" />
    <rect x="317.85498" y="405.6153" width="37.943054" height="23.0798" id="rect1004" />
    <rect x="317.85498" y="405.6153" width="56.357307" height="48.155148" id="rect1010" />
    <rect x="317.85498" y="405.6153" width="64.133507" height="22.31608" id="rect1022" />
  </defs>
  <metadata id="metadata5">
    <rdf:RDF>
      <cc:Work rdf:about="">
        <dc:format>image/svg+xml</dc:format>
        <dc:type rdf:resource="http://purl.org/dc/dcmitype/StillImage" />
      </cc:Work>
    </rdf:RDF>
  </metadata>
  <g id="layer1" transform="translate(-384.36136,-391.81329)">
    <path id="path52" style="fill:#ffffff;fill-opacity:1;fill-rule:evenodd;stroke:#000000;stroke-width:11.33858282;stroke-linecap:butt;stroke-linejoin:round;stroke-miterlimit:4;stroke-dasharray:none;paint-order:markers fill stroke" d="M 437.05859 17.451172 L 19.277344 741.07227 L 854.8418 741.07227 L 437.05859 17.451172 z M 437.05859 184.15625 L 709.41797 655.89453 L 164.70117 655.89453 L 437.05859 184.15625 z " transform="matrix(0.26458333,0,0,0.26458333,384.36136,391.81329)" />
    <rect style="fill:#ffffff;fill-opacity:1;fill-rule:evenodd;stroke:#000000;stroke-width:3;stroke-linecap:butt;stroke-linejoin:round;stroke-miterlimit:4;stroke-dasharray:none;paint-order:markers fill stroke" id="rect903" width="23.256481" height="96.131226" x="488.24368" y="413.96857" />
    <rect style="fill:#ffffff;fill-opacity:1;fill-rule:evenodd;stroke:#000000;stroke-width:3.00314189;stroke-linecap:butt;stroke-linejoin:round;stroke-miterlimit:4;stroke-dasharray:none;paint-order:markers fill stroke" id="rect930" width="24.621119" height="98.050545" x="-721.7251" y="-166.13927" transform="matrix(-0.50250931,-0.8645718,-0.83028187,0.55734371,0,0)" />
    <rect style="fill:#ffffff;fill-opacity:1;fill-rule:evenodd;stroke:#000000;stroke-width:3.00314189;stroke-linecap:butt;stroke-linejoin:round;stroke-miterlimit:4;stroke-dasharray:none;paint-order:markers fill stroke" id="rect932" width="24.621119" height="98.050545" x="-162.52528" y="701.31177" transform="matrix(0.50250931,-0.8645718,0.83028187,0.55734371,0,0)" />
    <circle style="fill:#ffffff;fill-opacity:1;fill-rule:evenodd;stroke:#000000;stroke-width:3;stroke-linecap:round;stroke-linejoin:bevel;stroke-miterlimit:4;stroke-dasharray:none;paint-order:markers fill stroke" id="path14" cx="500" cy="420.81757" r="27.504274" />
    <circle style="fill:#ffffff;fill-opacity:1;fill-rule:evenodd;stroke:#000000;stroke-width:3;stroke-linecap:round;stroke-linejoin:bevel;stroke-miterlimit:4;stroke-dasharray:none;paint-order:markers fill stroke" id="path14-3-6" cx="413.36563" cy="575.83307" r="27.504274" />
    <circle style="fill:#ffffff;fill-opacity:1;fill-rule:evenodd;stroke:#000000;stroke-width:3;stroke-linecap:round;stroke-linejoin:bevel;stroke-miterlimit:4;stroke-dasharray:none;paint-order:markers fill stroke" id="circle901" cx="587.16675" cy="575.83307" r="27.504274" />
    <circle style="fill:#ffffff;fill-opacity:1;fill-rule:evenodd;stroke:#000000;stroke-width:3;stroke-linecap:round;stroke-linejoin:bevel;stroke-miterlimit:4;stroke-dasharray:none;paint-order:markers fill stroke" id="path14-3-7" cx="500" cy="517.43787" r="27.504274" />
    <g aria-label="==" transform="rotate(91.236072)" id="text12409" style="font-weight:bold;font-size:21.1432px;line-height:1.25;font-family:Arial;-inkscape-font-specification:'Arial Bold';letter-spacing:0px;word-spacing:0px;stroke-width:0.755115">
      <path d="m 445.74548,-510.61525 v -2.66355 h 10.58192 v 2.66355 z m 0,4.58378 v -2.67388 h 10.58192 v 2.67388 z" id="path13614" />
      <path d="m 458.09277,-510.61525 v -2.66355 h 10.58193 v 2.66355 z m 0,4.58378 v -2.67388 h 10.58193 v 2.67388 z" id="path13616" />
    </g>
    <g aria-label="==" transform="rotate(-144.58284)" id="text12413" style="font-weight:bold;font-size:21.1432px;line-height:1.25;font-family:Arial;-inkscape-font-specification:'Arial Bold';letter-spacing:0px;word-spacing:0px;stroke-width:0.755115">
      <path d="m -772.22916,-131.13998 v -2.66355 h 10.58192 v 2.66355 z m 0,4.58378 v -2.67387 h 10.58192 v 2.67387 z" id="path13629" />
      <path d="m -759.88187,-131.13998 v -2.66355 h 10.58193 v 2.66355 z m 0,4.58378 v -2.67387 h 10.58193 v 2.67387 z" id="path13631" />
    </g>
    <g aria-label="==" transform="rotate(-32.222665)" id="text10911" style="font-weight:bold;font-size:21.1432px;line-height:1.25;font-family:Arial;-inkscape-font-specification:'Arial Bold';letter-spacing:0px;word-spacing:0px;stroke-width:0.755115">
      <path d="m 85.29982,704.71119 v -2.66354 h 10.581924 v 2.66354 z m 0,4.58378 v -2.67387 h 10.581924 v 2.67387 z" id="path13634" />
      <path d="m 97.647119,704.71119 v -2.66354 h 10.581921 v 2.66354 z m 0,4.58378 v -2.67387 h 10.581921 v 2.67387 z" id="path13636" />
    </g>
    <text xml:space="preserve" id="text1723" style="line-height:1.25;font-family:'Noto Serif TC';font-size:10.58333333px;-inkscape-font-specification:'Noto Serif TC';white-space:pre;shape-inside:url(#rect1725)" />
    <g aria-label="&quot;0&quot;" id="text3275" style="font-weight:bold;font-size:21.1432px;line-height:1.25;font-family:Arial;-inkscape-font-specification:'Arial Bold';letter-spacing:0px;word-spacing:0px;stroke-width:0.755115">
      <path d="m 399.11359,573.54635 -0.54717,-2.8184 v -2.56031 h 3.1591 v 2.56031 l -0.4749,2.8184 z m 4.65604,0 -0.54716,-2.8184 v -2.56031 h 3.15909 v 2.56031 l -0.47489,2.8184 z" id="path13639" />
      <path d="m 413.23658,568.10569 q 2.19898,0 3.43784,1.56923 1.47631,1.85828 1.47631,6.16332 0,4.29471 -1.48663,6.17365 -1.22854,1.54857 -3.42752,1.54857 -2.20929,0 -3.56172,-1.6931 -1.35242,-1.70344 -1.35242,-6.06009 0,-4.27407 1.48663,-6.153 1.22854,-1.54858 3.42751,-1.54858 z m 0,2.40546 q -0.52651,0 -0.93946,0.34068 -0.41296,0.33036 -0.64008,1.19757 -0.29939,1.12529 -0.29939,3.78884 0,2.66355 0.26842,3.66496 0.26842,0.99109 0.67105,1.32145 0.41295,0.33036 0.93946,0.33036 0.52652,0 0.93947,-0.33036 0.41296,-0.34069 0.64008,-1.20789 0.29939,-1.11497 0.29939,-3.77852 0,-2.66355 -0.26842,-3.65463 -0.26842,-1.00142 -0.68137,-1.33178 -0.40263,-0.34068 -0.92915,-0.34068 z" id="path13641" />
      <path d="m 420.89687,573.54635 -0.54717,-2.8184 v -2.56031 h 3.15909 v 2.56031 l -0.47489,2.8184 z m 4.65604,0 -0.54716,-2.8184 v -2.56031 h 3.15909 v 2.56031 l -0.4749,2.8184 z" id="path13643" />
    </g>
    <g aria-label="&quot;\t&quot;" id="text5191" style="font-weight:bold;font-size:21.1432px;line-height:1.25;font-family:Arial;-inkscape-font-specification:'Arial Bold';letter-spacing:0px;word-spacing:0px;stroke-width:0.755115">
      <path d="m 572.33655,573.64443 -0.54716,-2.8184 v -2.56031 h 3.15909 v 2.56031 l -0.4749,2.8184 z m 4.65605,0 -0.54717,-2.8184 v -2.56031 h 3.15909 v 2.56031 l -0.47489,2.8184 z" id="path13651" />
      <path d="m 580.62658,568.00762 h 2.13704 l 3.78884,15.65093 h -2.17833 z" id="path13653" />
      <path d="m 593.07712,572.43655 v 2.31253 h -1.98218 v 4.4186 q 0,1.3421 0.0516,1.56922 0.062,0.2168 0.2581,0.36134 0.20648,0.14453 0.49554,0.14453 0.40263,0 1.1666,-0.27874 l 0.24777,2.25059 q -1.01174,0.4336 -2.29189,0.4336 -0.78461,0 -1.41437,-0.25809 -0.62975,-0.26842 -0.92914,-0.68137 -0.28907,-0.42328 -0.40263,-1.13563 -0.0929,-0.50586 -0.0929,-2.04411 v -4.77994 h -1.33178 v -2.31253 h 1.33178 v -2.17833 l 2.91131,-1.69311 v 3.87144 z" id="path13655" />
      <path d="m 595.27609,573.64443 -0.54716,-2.8184 v -2.56031 h 3.15909 v 2.56031 l -0.47489,2.8184 z m 4.65605,0 -0.54716,-2.8184 v -2.56031 h 3.15909 v 2.56031 l -0.4749,2.8184 z" id="path13657" />
    </g>
    <g aria-label="0" id="text6979" style="font-weight:bold;font-size:21.1432px;line-height:1.25;font-family:Arial;-inkscape-font-specification:'Arial Bold';letter-spacing:0px;word-spacing:0px;stroke-width:0.755115">
      <path d="m 499.99999,509.71049 q 2.19897,0 3.43783,1.56922 1.47631,1.85829 1.47631,6.16333 0,4.29471 -1.48663,6.17365 -1.22854,1.54857 -3.42751,1.54857 -2.2093,0 -3.56172,-1.69311 -1.35242,-1.70343 -1.35242,-6.06008 0,-4.27407 1.48663,-6.15301 1.22853,-1.54857 3.42751,-1.54857 z m 0,2.40545 q -0.52652,0 -0.93947,0.34069 -0.41295,0.33036 -0.64008,1.19756 -0.29939,1.1253 -0.29939,3.78885 0,2.66355 0.26842,3.66496 0.26842,0.99108 0.67105,1.32145 0.41295,0.33036 0.93947,0.33036 0.52651,0 0.93947,-0.33036 0.41295,-0.34069 0.64008,-1.20789 0.29939,-1.11497 0.29939,-3.77852 0,-2.66355 -0.26842,-3.65464 -0.26842,-1.00141 -0.68138,-1.33177 -0.40263,-0.34069 -0.92914,-0.34069 z" id="path13753" />
    </g>
    <g aria-label="!=" id="text8341" style="font-weight:bold;font-size:21.1432px;line-height:1.25;font-family:Arial;-inkscape-font-specification:'Arial Bold';letter-spacing:0px;word-spacing:0px;stroke-width:0.755115">
      <path d="m 492.45327,579.74048 -0.75364,-7.68093 v -3.5514 h 3.13845 v 3.5514 l -0.74332,7.68093 z m -0.62975,3.9024 v -2.90099 h 2.90099 v 2.90099 z" id="path13646" />
      <path d="m 497.71842,575.21864 v -2.66355 h 10.58193 v 2.66355 z m 0,4.58378 v -2.67387 h 10.58193 v 2.67387 z" id="path13648" />
    </g>
    <g aria-label="!=" transform="rotate(120)" id="text10659" style="font-weight:bold;font-size:21.1432px;line-height:1.25;font-family:Arial;-inkscape-font-specification:'Arial Bold';letter-spacing:0px;word-spacing:0px;stroke-width:0.755115">
      <path d="m 199.40225,-637.68512 -0.75364,-7.68093 v -3.5514 h 3.13844 v 3.5514 l -0.74331,7.68093 z m -0.62976,3.90241 v -2.901 h 2.901 v 2.901 z" id="path13619" />
      <path d="m 204.6674,-642.20696 v -2.66355 h 10.58192 v 2.66355 z m 0,4.58378 v -2.67387 h 10.58192 v 2.67387 z" id="path13621" />
    </g>
    <g aria-label="!=" transform="rotate(-120)" id="text10827" style="font-weight:bold;font-size:21.1432px;line-height:1.25;font-family:Arial;-inkscape-font-specification:'Arial Bold';letter-spacing:0px;word-spacing:0px;stroke-width:0.755115">
      <path d="m -707.63602,227.56755 -0.75364,-7.68093 v -3.5514 h 3.13844 v 3.5514 l -0.74331,7.68093 z m -0.62976,3.90241 v -2.901 h 2.901 v 2.901 z" id="path13624" />
      <path d="m -702.37087,223.04571 v -2.66355 h 10.58192 v 2.66355 z m 0,4.58378 v -2.67387 h 10.58192 v 2.67387 z" id="path13626" />
    </g>
    <g aria-label="[]" id="text12577" style="font-weight:bold;font-size:21.1432px;line-height:1.25;font-family:Arial;-inkscape-font-specification:'Arial Bold';letter-spacing:0px;word-spacing:0px;stroke-width:0.755115">
      <path d="m 494.46642,430.51679 v -19.39847 h 5.14126 v 2.28157 h -2.3848 v 14.83534 h 2.3848 v 2.28156 z" id="path13609" />
      <path d="m 505.53356,411.11832 v 19.39847 h -5.14127 v -2.28156 h 2.38481 v -14.85599 h -2.38481 v -2.26092 z" id="path13611" />
    </g>
  </g>
</svg>
